<svg version="1" xmlns="http://www.w3.org/2000/svg" width="933.333" height="933.333" viewBox="0 0 700.000000 700.000000"><path d="M1 350v349h698V1H1v349zM367.5 63C413 78.6 545.4 153 587 186.5c14.3 11.5 18.4 17.3 21.5 30.9 9.6 41.9 11.4 200.5 2.8 255.1-1.9 12.8-4.6 19.8-9.7 25.9-16.7 19.8-108.9 78.3-184.1 116.6-28.7 14.7-46.1 22.1-56.2 24-12.3 2.4-27.2-2.7-69.5-23.7-69.9-34.6-155.4-86.5-179.6-108.8-4.5-4.2-8-8.5-9.7-11.9-7.4-15.1-11.1-56.8-12.2-135.6-1-74.3 2.3-129.1 8.8-147 2.4-6.4 4.8-9.8 11.6-16.2 34-32.3 189.1-122.6 230.6-134.3 6.7-1.9 18.2-1.3 26.2 1.5z"/><path d="M343.5 93.8C332.3 97.5 262.1 133 262 135c0 .3 8 4.7 17.8 9.9 9.7 5.2 35.7 19.4 57.7 31.6 22 12.2 46.3 25.4 54 29.3 16.7 8.5 39.9 21.7 58.5 33.2 7.4 4.6 40.7 24 74 43.1 59.3 34.1 60.5 34.7 60.9 32.1 1.1-8.6-3.5-71.4-6.4-86.9-1.4-7.4-1.7-8-6.6-12.5-21.5-19.6-110.1-72.7-171.9-103.2-20.8-10.3-40-18.6-46-19.9-1.4-.4-5.9.5-10.5 2.1zM213.8 162.9c-50.4 30.5-83.4 54.1-85.7 61.3-3.5 11-5.8 45.6-6.8 100.9l-.6 37.5 23.4 12.4c12.9 6.8 32.6 17.4 43.8 23.7 11.2 6.2 20.8 11.3 21.3 11.3.6 0 .7-.8.3-1.8-1.3-3.4-1.8-62.7-.6-83.7 2.1-39.5 4.1-49.1 11.6-56.8 10.7-10.8 50.6-35.4 91.8-56.7l16.8-8.7-21.8-12.1c-27.5-15.2-63.4-34.3-69.5-37l-4.7-2-19.3 11.7z"/><path d="M347.3 225.4c-25.2 10.7-73 37.6-97.4 54.7-11 7.7-9.7 4.7-12.1 28.4-1.5 15.7-1.6 88.5-.1 102 1.4 11.9.3 10.6 22.3 25.4 25.6 17.2 63.6 39 84.7 48.6l10.2 4.6 8.6-3.6c22.7-9.4 67.4-34 94.5-52.1 14.8-9.9 14.5-9.5 15.9-21.4 1.9-17.4 3.3-59.5 2.6-81-.6-19.4-2-37.7-3-41-2.2-6.7-85.4-56.7-111.4-67l-4.8-1.8-10 4.2z"/><path d="M503.3 304.1c2.6 14.6 1.4 87.1-1.8 112.8-2 16.1-3.7 20.1-11 27-12.9 12-62.6 42.1-98 59.3-5.8 2.8-10.4 5.2-10.3 5.3.2.1 17.4 10 38.3 22s39 22.4 40.1 23.2c2 1.3 4.1.2 27.5-14 42.2-25.5 77-49.1 87-59 3-2.9 3.9-4.7 4.7-9.9 3.1-17.9 4.6-41.8 5.8-92.5l.6-29.1-3.8-2.5c-3.5-2.2-71.9-41.7-77.5-44.7-2.1-1.2-2.1-1.1-1.6 2.1zM122 395.7c.1 8.1 3.3 54.2 4.4 63.3 2.6 20.7 2.8 21.2 10.4 27.5 13.3 11 43.6 30.9 79.8 52.3 57.7 34.1 127.8 69.2 138.2 69.2 5.2 0 18.8-5.8 48.2-20.7 27.9-14.1 32.8-16.9 31.9-17.7-.9-.9-111.1-63.6-120.4-68.6-11.5-6.1-26.5-14.7-55.5-31.7-32.2-18.8-134.4-75.3-136.4-75.3-.3 0-.6.8-.6 1.7z"/></svg>